<svg xmlns="http://www.w3.org/2000/svg" viewBox="0 0 200 200">
  <!-- Shadow -->
  <ellipse cx="100" cy="192" rx="54" ry="9" fill="#806000" opacity="0.2"/>

  <!-- Wings (raised) -->
  <ellipse cx="20" cy="144" rx="19" ry="26" fill="#FFDF00" stroke="#C8A800" stroke-width="2" transform="rotate(22 20 144)"/>
  <ellipse cx="180" cy="144" rx="19" ry="26" fill="#FFDF00" stroke="#C8A800" stroke-width="2" transform="rotate(-22 180 144)"/>

  <!-- Main duck body -->
  <ellipse cx="100" cy="118" rx="70" ry="74" fill="#FFE620"/>
  <ellipse cx="100" cy="118" rx="70" ry="74" fill="none" stroke="#C8A800" stroke-width="2.5"/>

  <!-- Body shine -->
  <ellipse cx="72" cy="80" rx="24" ry="15" fill="white" opacity="0.28" transform="rotate(-18 72 80)"/>

  <!-- Happy ^^ eyes -->
  <circle cx="76" cy="108" r="22" fill="white"/>
  <path d="M 57 113 Q 76 92 95 113" stroke="#1A0800" stroke-width="14" fill="none" stroke-linecap="round"/>
  <circle cx="67" cy="100" r="6" fill="white" opacity="0.85"/>
  <circle cx="124" cy="108" r="22" fill="white"/>
  <path d="M 105 113 Q 124 92 143 113" stroke="#1A0800" stroke-width="14" fill="none" stroke-linecap="round"/>
  <circle cx="115" cy="100" r="6" fill="white" opacity="0.85"/>

  <!-- Happy open beak -->
  <ellipse cx="100" cy="134" rx="20" ry="13" fill="#FF8800"/>
  <path d="M 82 134 Q 100 126 118 134" stroke="#C06000" stroke-width="1.5" fill="none"/>

  <!-- Sparkles -->
  <g transform="translate(22,52)">
    <line x1="0" y1="-7" x2="0" y2="7" stroke="#FFD700" stroke-width="2.5" stroke-linecap="round"/>
    <line x1="-7" y1="0" x2="7" y2="0" stroke="#FFD700" stroke-width="2.5" stroke-linecap="round"/>
  </g>
  <g transform="translate(178,44)">
    <line x1="0" y1="-9" x2="0" y2="9" stroke="#FFD700" stroke-width="3" stroke-linecap="round"/>
    <line x1="-9" y1="0" x2="9" y2="0" stroke="#FFD700" stroke-width="3" stroke-linecap="round"/>
  </g>
  <g transform="translate(162,22)">
    <line x1="0" y1="-5" x2="0" y2="5" stroke="#FFD700" stroke-width="2" stroke-linecap="round"/>
    <line x1="-5" y1="0" x2="5" y2="0" stroke="#FFD700" stroke-width="2" stroke-linecap="round"/>
  </g>
</svg>
