<svg xmlns="http://www.w3.org/2000/svg" viewBox="0 0 200 200">
  <circle cx="54" cy="66" r="20" fill="#D0A8BC"/>
  <circle cx="146" cy="66" r="20" fill="#D0A8BC"/>
  <circle cx="100" cy="118" r="65" fill="#DEB8CC"/>
  <circle cx="100" cy="118" r="65" fill="none" stroke="#C090A8" stroke-width="3"/>
  <circle cx="33" cy="116" r="15" fill="#DEB8CC" stroke="#C090A8" stroke-width="2.5"/>
  <circle cx="167" cy="116" r="15" fill="#DEB8CC" stroke="#C090A8" stroke-width="2.5"/>
  <circle cx="78" cy="108" r="14" fill="white"/>
  <circle cx="122" cy="108" r="14" fill="white"/>
  <circle cx="78" cy="111" r="9" fill="#3D1A00"/>
  <circle cx="122" cy="111" r="9" fill="#3D1A00"/>
  <circle cx="82" cy="107" r="2.5" fill="white"/>
  <circle cx="126" cy="107" r="2.5" fill="white"/>
  <path d="M 64 108 Q 78 98 92 108" fill="#DEB8CC"/>
  <path d="M 108 108 Q 122 98 136 108" fill="#DEB8CC"/>
  <ellipse cx="62" cy="124" rx="13" ry="8" fill="#C090A8" opacity="0.3"/>
  <ellipse cx="138" cy="124" rx="13" ry="8" fill="#C090A8" opacity="0.3"/>
  <circle cx="100" cy="118" r="3" fill="#C090A8"/>
  <path d="M 82 136 Q 100 129 118 136" stroke="#8B4C6A" stroke-width="3.5" fill="none" stroke-linecap="round"/>
  <path d="M 148 72 C 142 64 140 78 148 84 C 156 78 154 64 148 72 Z" fill="#A8D8F0"/>
  <path d="M 160 86 C 156 80 154 90 160 94 C 166 90 164 80 160 86 Z" fill="#A8D8F0"/>
</svg>
