<svg xmlns="http://www.w3.org/2000/svg" viewBox="0 0 200 200">
  <!-- Shadow -->
  <ellipse cx="100" cy="188" rx="50" ry="9" fill="#CC88AA" opacity="0.2"/>

  <!-- Body -->
  <ellipse cx="100" cy="110" rx="70" ry="74" fill="#FFD0E8"/>
  <ellipse cx="100" cy="110" rx="70" ry="74" fill="none" stroke="#FFB0CC" stroke-width="3"/>

  <!-- Body shine -->
  <ellipse cx="76" cy="80" rx="24" ry="15" fill="white" opacity="0.28" transform="rotate(-18 76 80)"/>

  <!-- Happy arc eyes (^^ style) -->
  <circle cx="78" cy="104" r="16" fill="white"/>
  <path d="M 62 107 Q 78 88 94 107" stroke="#1A0800" stroke-width="12" fill="none" stroke-linecap="round"/>
  <circle cx="71" cy="98" r="4" fill="white"/>

  <circle cx="122" cy="104" r="16" fill="white"/>
  <path d="M 106 107 Q 122 88 138 107" stroke="#1A0800" stroke-width="12" fill="none" stroke-linecap="round"/>
  <circle cx="115" cy="98" r="4" fill="white"/>

  <!-- Big blush -->
  <ellipse cx="58" cy="120" rx="16" ry="10" fill="#FF90BE" opacity="0.42"/>
  <ellipse cx="142" cy="120" rx="16" ry="10" fill="#FF90BE" opacity="0.42"/>

  <!-- Nose -->
  <circle cx="100" cy="118" r="3" fill="#FF80A8"/>

  <!-- Big happy smile -->
  <path d="M 80 130 Q 100 152 120 130" stroke="#CC3366" stroke-width="3.5" fill="none" stroke-linecap="round"/>

  <!-- Sparkles -->
  <g transform="translate(28,42)">
    <line x1="0" y1="-7" x2="0" y2="7" stroke="#FFD700" stroke-width="2.5" stroke-linecap="round"/>
    <line x1="-7" y1="0" x2="7" y2="0" stroke="#FFD700" stroke-width="2.5" stroke-linecap="round"/>
  </g>
  <g transform="translate(172,36)">
    <line x1="0" y1="-9" x2="0" y2="9" stroke="#FFD700" stroke-width="3" stroke-linecap="round"/>
    <line x1="-9" y1="0" x2="9" y2="0" stroke="#FFD700" stroke-width="3" stroke-linecap="round"/>
  </g>
  <!-- Hearts -->
  <path d="M 38 78 C 38 75 35 73 35 76 C 35 73 32 75 32 78 C 32 82 38 86 38 86 C 38 86 44 82 44 78 C 44 75 41 73 41 76 C 41 73 38 75 38 78 Z" fill="#FF6B99" opacity="0.7"/>
  <path d="M 162 70 C 162 67 159 65 159 68 C 159 65 156 67 156 70 C 156 74 162 78 162 78 C 162 78 168 74 168 70 C 168 67 165 65 165 68 C 165 65 162 67 162 70 Z" fill="#FF6B99" opacity="0.7"/>
</svg>
