<svg xmlns="http://www.w3.org/2000/svg" viewBox="0 0 200 200">
  <!-- Shadow -->
  <ellipse cx="100" cy="192" rx="50" ry="8" fill="#1A1A10" opacity="0.25"/>

  <!-- Body (plate carrier, coyote tan) -->
  <ellipse cx="100" cy="138" rx="66" ry="58" fill="#7A7260"/>
  <ellipse cx="100" cy="138" rx="66" ry="58" fill="none" stroke="#5C5648" stroke-width="2.5"/>
  <!-- Front plate panel -->
  <rect x="68" y="108" width="64" height="58" rx="10" fill="#6A6352"/>
  <!-- MOLLE webbing lines -->
  <line x1="70" y1="120" x2="130" y2="120" stroke="#4C4840" stroke-width="2" opacity="0.65"/>
  <line x1="70" y1="130" x2="130" y2="130" stroke="#4C4840" stroke-width="2" opacity="0.65"/>
  <line x1="70" y1="140" x2="130" y2="140" stroke="#4C4840" stroke-width="2" opacity="0.65"/>
  <line x1="70" y1="150" x2="130" y2="150" stroke="#4C4840" stroke-width="2" opacity="0.65"/>
  <!-- Admin pouch -->
  <rect x="80" y="154" width="40" height="12" rx="5" fill="#58523E"/>

  <!-- Arms -->
  <ellipse cx="26" cy="132" rx="20" ry="13" fill="#7A7260" stroke="#5C5648" stroke-width="2"/>
  <ellipse cx="174" cy="132" rx="20" ry="13" fill="#7A7260" stroke="#5C5648" stroke-width="2"/>

  <!-- Neck / balaclava -->
  <ellipse cx="100" cy="108" rx="34" ry="16" fill="#1E1E1E"/>

  <!-- Helmet (FAST-style) -->
  <ellipse cx="100" cy="60" rx="62" ry="54" fill="#242424"/>
  <!-- Helmet lower brim -->
  <rect x="40" y="98" width="120" height="12" rx="5" fill="#1A1A1A"/>

  <!-- Goggle bridge -->
  <rect x="88" y="82" width="24" height="10" rx="5" fill="#141414"/>

  <!-- Left goggle -->
  <circle cx="74" cy="87" r="19" fill="#141414"/>
  <circle cx="74" cy="87" r="14" fill="#B88C14"/>
  <circle cx="75" cy="89" r="7" fill="#7A5C0A"/>
  <circle cx="67" cy="80" r="4.5" fill="white" opacity="0.3"/>

  <!-- Right goggle -->
  <circle cx="126" cy="87" r="19" fill="#141414"/>
  <circle cx="126" cy="87" r="14" fill="#B88C14"/>
  <circle cx="127" cy="89" r="7" fill="#7A5C0A"/>
  <circle cx="119" cy="80" r="4.5" fill="white" opacity="0.3"/>

  <!-- NVG mount on helmet -->
  <rect x="88" y="16" width="24" height="14" rx="5" fill="#1A1A1A"/>
  <rect x="94" y="13" width="12" height="7" rx="3" fill="#141414"/>

  <!-- Mouth (small, peeking below brim) -->
  <path d="M 89 113 Q 100 121 111 113" stroke="#7A5A30" stroke-width="2.5" fill="none" stroke-linecap="round"/>
</svg>
