<svg xmlns="http://www.w3.org/2000/svg" viewBox="0 0 200 200">
  <circle cx="54" cy="66" r="20" fill="#B0A8C0"/>
  <circle cx="146" cy="66" r="20" fill="#B0A8C0"/>
  <circle cx="100" cy="118" r="65" fill="#C8C0D4"/>
  <circle cx="100" cy="118" r="65" fill="none" stroke="#9888A8" stroke-width="3"/>
  <circle cx="33" cy="126" r="15" fill="#C8C0D4" stroke="#9888A8" stroke-width="2.5"/>
  <circle cx="167" cy="126" r="15" fill="#C8C0D4" stroke="#9888A8" stroke-width="2.5"/>
  <line x1="65" y1="94" x2="89" y2="118" stroke="#3D1A00" stroke-width="5" stroke-linecap="round"/>
  <line x1="89" y1="94" x2="65" y2="118" stroke="#3D1A00" stroke-width="5" stroke-linecap="round"/>
  <line x1="111" y1="94" x2="135" y2="118" stroke="#3D1A00" stroke-width="5" stroke-linecap="round"/>
  <line x1="135" y1="94" x2="111" y2="118" stroke="#3D1A00" stroke-width="5" stroke-linecap="round"/>
  <ellipse cx="62" cy="126" rx="12" ry="7" fill="#9888A8" opacity="0.25"/>
  <ellipse cx="138" cy="126" rx="12" ry="7" fill="#9888A8" opacity="0.25"/>
  <circle cx="100" cy="120" r="3" fill="#9888A8"/>
  <path d="M 74 140 Q 100 124 126 140" stroke="#6B4A80" stroke-width="4" fill="none" stroke-linecap="round"/>
  <path d="M 150 70 C 144 62 142 76 150 82 C 158 76 156 62 150 70 Z" fill="#A8D8F0"/>
  <path d="M 163 84 C 158 78 156 88 163 93 C 170 88 168 78 163 84 Z" fill="#A8D8F0"/>
  <path d="M 145 86 C 141 80 140 89 145 93 C 150 89 149 80 145 86 Z" fill="#A8D8F0"/>
  <g transform="translate(26,42)">
    <line x1="0" y1="-6" x2="0" y2="6" stroke="#C0A0D0" stroke-width="2" stroke-linecap="round"/>
    <line x1="-6" y1="0" x2="6" y2="0" stroke="#C0A0D0" stroke-width="2" stroke-linecap="round"/>
    <line x1="-4" y1="-4" x2="4" y2="4" stroke="#C0A0D0" stroke-width="1.5" stroke-linecap="round"/>
    <line x1="4" y1="-4" x2="-4" y2="4" stroke="#C0A0D0" stroke-width="1.5" stroke-linecap="round"/>
  </g>
  <g transform="translate(172,38)">
    <line x1="0" y1="-5" x2="0" y2="5" stroke="#C0A0D0" stroke-width="2" stroke-linecap="round"/>
    <line x1="-5" y1="0" x2="5" y2="0" stroke="#C0A0D0" stroke-width="2" stroke-linecap="round"/>
    <line x1="-3" y1="-3" x2="3" y2="3" stroke="#C0A0D0" stroke-width="1.5" stroke-linecap="round"/>
    <line x1="3" y1="-3" x2="-3" y2="3" stroke="#C0A0D0" stroke-width="1.5" stroke-linecap="round"/>
  </g>
</svg>
