<svg xmlns="http://www.w3.org/2000/svg" viewBox="0 0 200 200">
  <circle cx="100" cy="118" r="82" fill="#FFE8F5" opacity="0.6"/>
  <circle cx="54" cy="66" r="20" fill="#FFC0DC"/>
  <circle cx="146" cy="66" r="20" fill="#FFC0DC"/>
  <circle cx="100" cy="118" r="65" fill="#FFD0E8"/>
  <circle cx="100" cy="118" r="65" fill="none" stroke="#FF90BE" stroke-width="3"/>
  <circle cx="30" cy="90" r="17" fill="#FFD0E8" stroke="#FF90BE" stroke-width="2.5"/>
  <circle cx="170" cy="90" r="17" fill="#FFD0E8" stroke="#FF90BE" stroke-width="2.5"/>
  <circle cx="78" cy="106" r="14" fill="white"/>
  <circle cx="122" cy="106" r="14" fill="white"/>
  <path d="M 67 102 Q 78 114 89 102" stroke="#3D1A00" stroke-width="5" fill="none" stroke-linecap="round"/>
  <path d="M 111 102 Q 122 114 133 102" stroke="#3D1A00" stroke-width="5" fill="none" stroke-linecap="round"/>
  <ellipse cx="62" cy="122" rx="15" ry="9" fill="#FF90BE" opacity="0.45"/>
  <ellipse cx="138" cy="122" rx="15" ry="9" fill="#FF90BE" opacity="0.45"/>
  <circle cx="100" cy="116" r="3.5" fill="#FF90BE"/>
  <path d="M 74 130 Q 100 154 126 130" stroke="#E8305A" stroke-width="4" fill="none" stroke-linecap="round"/>
  <g transform="translate(20,32)">
    <line x1="0" y1="-9" x2="0" y2="9" stroke="#FFD700" stroke-width="2.5" stroke-linecap="round"/>
    <line x1="-9" y1="0" x2="9" y2="0" stroke="#FFD700" stroke-width="2.5" stroke-linecap="round"/>
    <line x1="-6" y1="-6" x2="6" y2="6" stroke="#FFD700" stroke-width="1.5" stroke-linecap="round"/>
    <line x1="6" y1="-6" x2="-6" y2="6" stroke="#FFD700" stroke-width="1.5" stroke-linecap="round"/>
  </g>
  <g transform="translate(178,28)">
    <line x1="0" y1="-11" x2="0" y2="11" stroke="#FFD700" stroke-width="3" stroke-linecap="round"/>
    <line x1="-11" y1="0" x2="11" y2="0" stroke="#FFD700" stroke-width="3" stroke-linecap="round"/>
    <line x1="-7" y1="-7" x2="7" y2="7" stroke="#FFD700" stroke-width="2" stroke-linecap="round"/>
    <line x1="7" y1="-7" x2="-7" y2="7" stroke="#FFD700" stroke-width="2" stroke-linecap="round"/>
  </g>
  <circle cx="40" cy="56" r="4" fill="#FFD700" opacity="0.85"/>
  <circle cx="162" cy="46" r="3.5" fill="#FFD700" opacity="0.85"/>
</svg>
