<svg xmlns="http://www.w3.org/2000/svg" viewBox="0 0 200 200">
  <!-- Shadow -->
  <ellipse cx="100" cy="188" rx="46" ry="7" fill="#AA8899" opacity="0.18"/>

  <!-- Body (slightly muted) -->
  <ellipse cx="100" cy="114" rx="68" ry="72" fill="#E8C0D4"/>
  <ellipse cx="100" cy="114" rx="68" ry="72" fill="none" stroke="#D0A8BC" stroke-width="3"/>

  <!-- Body shine -->
  <ellipse cx="76" cy="84" rx="20" ry="13" fill="white" opacity="0.18" transform="rotate(-18 76 84)"/>

  <!-- Left eye (half closed) -->
  <circle cx="78" cy="106" r="16" fill="white"/>
  <circle cx="79" cy="112" r="10" fill="#1A0800"/>
  <circle cx="74" cy="109" r="3.5" fill="white" opacity="0.7"/>
  <!-- Eyelid -->
  <ellipse cx="78" cy="97" rx="18" ry="12" fill="#E8C0D4"/>
  <path d="M 60 97 Q 78 108 96 97" stroke="#C0A0B0" stroke-width="2.5" fill="none" stroke-linecap="round"/>

  <!-- Right eye (half closed) -->
  <circle cx="122" cy="106" r="16" fill="white"/>
  <circle cx="123" cy="112" r="10" fill="#1A0800"/>
  <circle cx="118" cy="109" r="3.5" fill="white" opacity="0.7"/>
  <!-- Eyelid -->
  <ellipse cx="122" cy="97" rx="18" ry="12" fill="#E8C0D4"/>
  <path d="M 104 97 Q 122 108 140 97" stroke="#C0A0B0" stroke-width="2.5" fill="none" stroke-linecap="round"/>

  <!-- Blush (faint) -->
  <ellipse cx="60" cy="122" rx="13" ry="8" fill="#BB8899" opacity="0.2"/>
  <ellipse cx="140" cy="122" rx="13" ry="8" fill="#BB8899" opacity="0.2"/>

  <!-- Nose -->
  <circle cx="100" cy="120" r="3" fill="#C090A8"/>

  <!-- Flat tired mouth -->
  <path d="M 88 132 Q 100 128 112 132" stroke="#996677" stroke-width="3" fill="none" stroke-linecap="round"/>

  <!-- Sweat drop -->
  <path d="M 148 74 C 143 66 141 80 148 86 C 155 80 153 66 148 74 Z" fill="#AAD8F0"/>

  <!-- ZZZ -->
  <path d="M 154 60 L 163 60 L 154 70 L 163 70" stroke="#99C8E0" stroke-width="2.5" fill="none" stroke-linecap="round" stroke-linejoin="round"/>
  <path d="M 162 43 L 174 43 L 162 56 L 174 56" stroke="#99C8E0" stroke-width="3" fill="none" stroke-linecap="round" stroke-linejoin="round"/>
  <path d="M 172 24 L 186 24 L 172 40 L 186 40" stroke="#99C8E0" stroke-width="3.5" fill="none" stroke-linecap="round" stroke-linejoin="round"/>
</svg>
