<svg xmlns="http://www.w3.org/2000/svg" viewBox="0 0 200 200">
  <!-- Shadow -->
  <ellipse cx="100" cy="192" rx="52" ry="8" fill="#806000" opacity="0.22"/>

  <!-- Wings -->
  <ellipse cx="22" cy="148" rx="19" ry="26" fill="#FFDF00" stroke="#C8A800" stroke-width="2" transform="rotate(12 22 148)"/>
  <ellipse cx="178" cy="148" rx="19" ry="26" fill="#FFDF00" stroke="#C8A800" stroke-width="2" transform="rotate(-12 178 148)"/>

  <!-- Main duck body -->
  <ellipse cx="100" cy="118" rx="70" ry="74" fill="#FFDF00"/>
  <ellipse cx="100" cy="118" rx="70" ry="74" fill="none" stroke="#C8A800" stroke-width="2.5"/>

  <!-- Body shine -->
  <ellipse cx="72" cy="82" rx="22" ry="14" fill="white" opacity="0.22" transform="rotate(-18 72 82)"/>

  <!-- Duck eyes -->
  <circle cx="76" cy="108" r="22" fill="white"/>
  <circle cx="80" cy="112" r="13" fill="#1A0800"/>
  <circle cx="70" cy="102" r="6" fill="white" opacity="0.85"/>
  <circle cx="124" cy="108" r="22" fill="white"/>
  <circle cx="128" cy="112" r="13" fill="#1A0800"/>
  <circle cx="118" cy="102" r="6" fill="white" opacity="0.85"/>

  <!-- Orange beak -->
  <ellipse cx="100" cy="134" rx="20" ry="12" fill="#FF8800"/>
  <path d="M 82 134 Q 100 130 118 134" stroke="#C06000" stroke-width="1.5" fill="none"/>
</svg>
