<svg xmlns="http://www.w3.org/2000/svg" viewBox="0 0 200 200">
  <!-- Shadow -->
  <ellipse cx="100" cy="192" rx="50" ry="8" fill="#806000" opacity="0.18"/>

  <!-- Wings (drooped) -->
  <ellipse cx="22" cy="152" rx="19" ry="26" fill="#F0D000" stroke="#C0A000" stroke-width="2" transform="rotate(4 22 152)"/>
  <ellipse cx="178" cy="152" rx="19" ry="26" fill="#F0D000" stroke="#C0A000" stroke-width="2" transform="rotate(-4 178 152)"/>

  <!-- Main duck body (slightly duller) -->
  <ellipse cx="100" cy="118" rx="70" ry="74" fill="#F0D200"/>
  <ellipse cx="100" cy="118" rx="70" ry="74" fill="none" stroke="#C0A000" stroke-width="2.5"/>

  <!-- Body shine -->
  <ellipse cx="72" cy="82" rx="20" ry="13" fill="white" opacity="0.18" transform="rotate(-18 72 82)"/>

  <!-- Sleepy half-closed eyes -->
  <circle cx="76" cy="108" r="22" fill="white"/>
  <circle cx="79" cy="113" r="13" fill="#1A0800"/>
  <circle cx="70" cy="104" r="6" fill="white" opacity="0.7"/>
  <ellipse cx="76" cy="97" rx="24" ry="14" fill="#F0D200"/>
  <path d="M 54 97 Q 76 110 98 97" stroke="#C0A000" stroke-width="2" fill="none" stroke-linecap="round"/>

  <circle cx="124" cy="108" r="22" fill="white"/>
  <circle cx="127" cy="113" r="13" fill="#1A0800"/>
  <circle cx="118" cy="104" r="6" fill="white" opacity="0.7"/>
  <ellipse cx="124" cy="97" rx="24" ry="14" fill="#F0D200"/>
  <path d="M 102 97 Q 124 110 146 97" stroke="#C0A000" stroke-width="2" fill="none" stroke-linecap="round"/>

  <!-- Flat tired beak -->
  <ellipse cx="100" cy="134" rx="18" ry="10" fill="#E07800"/>
  <path d="M 84 134 Q 100 131 116 134" stroke="#B05800" stroke-width="1.5" fill="none"/>

  <!-- Sweat drop -->
  <path d="M 158 58 C 153 50 151 64 158 70 C 165 64 163 50 158 58 Z" fill="#AAD8F0"/>

  <!-- ZZZ -->
  <path d="M 154 68 L 163 68 L 154 78 L 163 78" stroke="#99C8E0" stroke-width="2.5" fill="none" stroke-linecap="round" stroke-linejoin="round"/>
  <path d="M 162 50 L 174 50 L 162 63 L 174 63" stroke="#99C8E0" stroke-width="3" fill="none" stroke-linecap="round" stroke-linejoin="round"/>
  <path d="M 172 28 L 186 28 L 172 44 L 186 44" stroke="#99C8E0" stroke-width="3.5" fill="none" stroke-linecap="round" stroke-linejoin="round"/>
</svg>
